<?xml version="1.0" standalone="no"?>
<svg viewBox="0 0 200 200" xmlns="http://www.w3.org/2000/svg">
  <path d="M35.3,-62.2C47.3,-54.3,59.5,-47.9,68.5,-37.8C77.4,-27.6,83,-13.8,85,1.1C86.9,16.1,85.3,32.2,76.1,41.9C66.9,51.5,50.2,54.8,36.3,61.3C22.3,67.8,11.2,77.5,-0.1,77.7C-11.4,77.9,-22.8,68.5,-36.5,62C-50.3,55.4,-66.4,51.5,-76,41.6C-85.6,31.7,-88.8,15.9,-84.6,2.4C-80.4,-11,-68.8,-22.1,-60.9,-34.8C-53,-47.6,-48.6,-62.1,-39,-71.4C-29.5,-80.7,-14.7,-84.8,-1.5,-82.1C11.7,-79.5,23.3,-70.1,35.3,-62.2Z" transform="translate(100 100)" />
</svg>
