<?xml version="1.0" standalone="no"?>
<svg viewBox="0 0 200 200" xmlns="http://www.w3.org/2000/svg">
  <path d="M38.2,-67.3C48.2,-60.4,54.1,-47.5,58.8,-35.3C63.6,-23.1,67.2,-11.5,67.9,0.4C68.6,12.3,66.3,24.7,62,37.7C57.8,50.7,51.4,64.4,40.7,69.5C30,74.7,15,71.3,1.1,69.4C-12.9,67.6,-25.8,67.3,-39.7,64C-53.6,60.7,-68.5,54.5,-77.6,43.3C-86.6,32.1,-89.8,16.1,-86.8,1.7C-83.9,-12.7,-74.9,-25.4,-66,-36.9C-57.2,-48.3,-48.5,-58.7,-37.5,-65C-26.5,-71.3,-13.3,-73.6,0.4,-74.3C14.1,-75.1,28.2,-74.2,38.2,-67.3Z" transform="translate(100 100)" />
</svg>
