<?xml version="1.0" standalone="no"?>
<svg viewBox="0 0 200 200" xmlns="http://www.w3.org/2000/svg">
  <path d="M34.5,-61.3C46,-53,57.6,-46.5,63.5,-36.5C69.5,-26.6,69.8,-13.3,71.7,1.1C73.7,15.5,77.2,31,72.8,43.8C68.5,56.5,56.3,66.4,42.8,74.6C29.4,82.8,14.7,89.3,1.8,86.2C-11.1,83.1,-22.2,70.4,-32.1,60.2C-41.9,49.9,-50.4,41.9,-60.8,32.3C-71.2,22.7,-83.5,11.3,-87,-2C-90.5,-15.4,-85.2,-30.7,-77.3,-44.7C-69.4,-58.7,-58.9,-71.4,-45.6,-78.6C-32.3,-85.8,-16.2,-87.5,-2.3,-83.5C11.5,-79.4,22.9,-69.5,34.5,-61.3Z" transform="translate(100 100)" />
</svg>
