<?xml version="1.0" standalone="no"?>
<svg viewBox="0 0 200 200" xmlns="http://www.w3.org/2000/svg">
  <path d="M37.3,-66.4C47.8,-58.5,55.5,-47.5,65.3,-35.9C75,-24.3,86.9,-12.1,86.7,-0.2C86.4,11.8,73.9,23.7,64.4,35.8C54.9,47.9,48.4,60.2,38.2,68.3C27.9,76.4,14,80.3,1.4,77.8C-11.1,75.3,-22.3,66.6,-35.7,60.3C-49,54,-64.6,50.2,-73.1,40.5C-81.5,30.9,-82.7,15.4,-83.7,-0.6C-84.6,-16.6,-85.3,-33.1,-78.1,-44.9C-71,-56.7,-55.9,-63.7,-41.5,-69.3C-27.2,-75,-13.6,-79.4,-0.1,-79.2C13.4,-79,26.8,-74.3,37.3,-66.4Z" transform="translate(100 100)" />
</svg>
