<?xml version="1.0" standalone="no"?>
<svg viewBox="0 0 200 200" xmlns="http://www.w3.org/2000/svg">
  <path d="M33.4,-60.3C45.7,-50.8,59.6,-46.6,68.4,-37.5C77.2,-28.3,81,-14.1,81.6,0.4C82.3,14.9,79.8,29.8,71,38.9C62.2,48.1,46.9,51.5,34,60.4C21.1,69.4,10.6,83.9,-2.6,88.3C-15.7,92.8,-31.3,87.1,-40.6,76C-49.9,65,-52.7,48.5,-58.1,35C-63.5,21.4,-71.4,10.7,-74.1,-1.6C-76.9,-13.9,-74.5,-27.7,-66.9,-37.6C-59.4,-47.4,-46.7,-53.2,-34.7,-62.9C-22.7,-72.5,-11.3,-86.1,-0.4,-85.4C10.6,-84.7,21.2,-69.9,33.4,-60.3Z" transform="translate(100 100)" />
</svg>
