<?xml version="1.0" standalone="no"?>
<svg viewBox="0 0 200 200" xmlns="http://www.w3.org/2000/svg">
  <path d="M44.3,-74.4C58.1,-68.8,70.3,-58.2,77.5,-45C84.7,-31.7,86.9,-15.9,82.6,-2.5C78.3,10.9,67.4,21.8,58.2,31.5C48.9,41.2,41.3,49.7,31.8,58.1C22.4,66.6,11.2,75,-1.7,77.9C-14.6,80.8,-29.1,78.2,-43.4,72.6C-57.7,66.9,-71.6,58.2,-75.7,45.6C-79.8,32.9,-73.9,16.5,-70.2,2.2C-66.4,-12.1,-64.7,-24.3,-60.8,-37.1C-56.9,-49.9,-50.7,-63.5,-40.2,-70.9C-29.6,-78.4,-14.8,-79.8,0.2,-80.2C15.3,-80.6,30.6,-80,44.3,-74.4Z" transform="translate(100 100)" />
</svg>
