<?xml version="1.0" standalone="no"?>
<svg viewBox="0 0 200 200" xmlns="http://www.w3.org/2000/svg">
  <path d="M37.3,-67.2C46.7,-59.2,51.5,-45.8,55.6,-33.7C59.7,-21.6,63.1,-10.8,67.7,2.6C72.3,16.1,78,32.2,72.6,42.2C67.3,52.1,50.8,55.8,36.9,62C22.9,68.2,11.5,76.9,-0.5,77.8C-12.5,78.7,-25,71.8,-36.1,64C-47.1,56.1,-56.7,47.2,-63.2,36.4C-69.6,25.5,-72.9,12.8,-73.1,-0.1C-73.3,-13,-70.5,-26,-65.1,-38.7C-59.7,-51.3,-51.7,-63.6,-40.5,-70.4C-29.2,-77.2,-14.6,-78.7,-0.3,-78.1C14,-77.6,28,-75.1,37.3,-67.2Z" transform="translate(100 100)" />
</svg>
