<?xml version="1.0" standalone="no"?>
<svg viewBox="0 0 200 200" xmlns="http://www.w3.org/2000/svg">
  <path d="M34.2,-60.5C43.5,-53.8,49.6,-43,57.6,-32.2C65.6,-21.5,75.3,-10.7,80.2,2.8C85.1,16.4,85.2,32.8,77.9,44.8C70.6,56.7,56,64.2,41.8,70.1C27.6,76,13.8,80.5,-1,82.2C-15.8,83.9,-31.5,82.9,-45.1,76.6C-58.7,70.3,-70.2,58.7,-73.1,45.1C-76.1,31.4,-70.6,15.7,-70.3,0.2C-70,-15.3,-74.9,-30.7,-71.6,-43.9C-68.4,-57.1,-57.1,-68.2,-43.8,-72.6C-30.5,-77,-15.2,-74.7,-1.4,-72.3C12.4,-69.8,24.9,-67.2,34.2,-60.5Z" transform="translate(100 100)" />
</svg>
