<?xml version="1.0" standalone="no"?>
<svg viewBox="0 0 200 200" xmlns="http://www.w3.org/2000/svg">
  <path d="M43.9,-76.2C57.5,-68.1,69.5,-57.6,74.6,-44.5C79.6,-31.4,77.6,-15.7,76.8,-0.5C75.9,14.7,76.2,29.4,71.5,43.1C66.8,56.8,57.1,69.4,44.3,73.4C31.6,77.5,15.8,72.9,-0.3,73.4C-16.4,74,-32.8,79.5,-47,76.3C-61.2,73.2,-73.3,61.2,-77.2,47C-81,32.9,-76.7,16.4,-71.6,3C-66.4,-10.5,-60.4,-21,-54.7,-31.9C-49,-42.9,-43.5,-54.3,-34.4,-65C-25.3,-75.8,-12.6,-85.8,1.2,-88C15.1,-90.1,30.3,-84.4,43.9,-76.2Z" transform="translate(100 100)" />
</svg>
