<svg viewBox="0 0 651 570" xmlns="http://www.w3.org/2000/svg" fill-rule="evenodd" clip-rule="evenodd" stroke-linecap="round" stroke-linejoin="round" stroke-miterlimit="1.5">
  <circle cx="366.523" cy="284.847" r="284.26" fill="#50514f" fill-opacity=".5"/>
  <path d="M497.424 320.084V113.463H8.626v364.966h488.798V363.081" fill="#60b7db" stroke="#50514f" stroke-width="15.57"/>
  <path fill="#c5c6c6" stroke="#50514f" stroke-width="15.57" d="M35.444 407.344h435.162v42.927H35.444z"/>
  <path d="M470.606 407.344V75.661H285.4c-17.88.001-32.375 14.495-32.375 32.375v342.236-10.553c0-17.88 14.495-32.375 32.375-32.375h185.206z" fill="#fff"/>
  <clipPath id="a">
    <path d="M470.606 407.344V75.661H285.4c-17.88.001-32.375 14.495-32.375 32.375v342.236-10.553c0-17.88 14.495-32.375 32.375-32.375h185.206z"/>
  </clipPath>
  <g fill="none" stroke="#50514f" clip-path="url(#a)">
    <path d="M290.141 108.06H433.49M290.141 144.53H433.49" stroke-width="15.24"/>
    <path d="M318.782 217.468h86.068" stroke-width="15"/>
    <path d="M290.141 253.937H433.49" stroke-width="15.24"/>
    <path d="M290.141 290.407H433.49M290.141 326.876H433.49M290.141 363.345h55.997" stroke-width="15.39"/>
  </g>
  <path d="M470.606 407.344V75.661H285.4c-17.88.001-32.375 14.495-32.375 32.375v342.236-10.553c0-17.88 14.495-32.375 32.375-32.375h185.206z" fill="none" stroke="#50514f" stroke-width="15.57"/>
  <path d="M253.025 450.272V108.036c0-17.88-14.494-32.374-32.374-32.375H35.444v331.092s124.703.339 185.294.504c17.846.048 32.287 14.528 32.287 32.374v10.641z" fill="#fff"/>
  <clipPath id="b">
    <path d="M253.025 450.272V108.036c0-17.88-14.494-32.374-32.374-32.375H35.444v331.092s124.703.339 185.294.504c17.846.048 32.287 14.528 32.287 32.374v10.641z"/>
  </clipPath>
  <g fill="none" stroke="#50514f" clip-path="url(#b)">
    <path d="M128.751 108.06h87.158" stroke-width="15.24"/>
    <path d="M90.794 108.06v36.47M72.56 108.06h36.469" stroke-width="15.57"/>
    <path d="M128.751 144.53h87.158M72.56 180.999h143.349" stroke-width="15.24"/>
    <path d="M72.56 217.468h143.349" stroke-width="15"/>
    <path d="M72.56 253.937h47.335" stroke-width="15.24"/>
    <path d="M72.56 290.407h143.349M72.56 326.876h143.349M72.56 363.345h94.67" stroke-width="15.39"/>
  </g>
  <path d="M253.025 450.272V108.036c0-17.88-14.494-32.374-32.374-32.375H35.444v331.092s124.703.339 185.294.504c17.846.048 32.287 14.528 32.287 32.374v10.641z" fill="none" stroke="#50514f" stroke-width="15.57"/>
  <path d="M417.174 72.776h-47.649v52.445l47.649 26.655v-79.1z" fill="#60b7db" stroke="#50514f" stroke-width="15.57"/>
  <ellipse cx="497.424" cy="341.799" rx="8.094" ry="8.293" fill="#50514f"/>
</svg>
