<svg viewBox="0 0 679 578" xmlns="http://www.w3.org/2000/svg" fill-rule="evenodd" clip-rule="evenodd" stroke-linecap="round" stroke-linejoin="round" stroke-miterlimit="1.5">
  <circle cx="284.477" cy="292.847" r="284.26" fill="#50514f" fill-opacity=".5"/>
  <path d="M516.166 424.973V55.4H200.963v431.029h315.203v-20.104" fill="#fff"/>
  <clipPath id="a">
    <path d="M516.166 424.973V55.4H200.963v431.029h315.203v-20.104"/>
  </clipPath>
  <g clip-path="url(#a)" stroke="#50514f" stroke-width="15.6">
    <path fill="#60b7db" d="M234.694 140.713h61.65v61.65h-61.65z"/>
    <path d="M332.701 149.639h139.012M332.701 184.304h61.082" fill="none"/>
    <g>
      <path fill="#60b7db" d="M234.694 247.407h61.65v61.65h-61.65z"/>
      <path d="M332.701 256.333h139.012M332.701 290.998h61.082" fill="none"/>
    </g>
    <g>
      <path fill="#60b7db" d="M234.694 355.242h61.65v61.65h-61.65z"/>
      <path d="M332.701 364.168h139.012M332.701 398.833h61.082" fill="none"/>
    </g>
  </g>
  <path d="M516.166 424.973V55.4H200.963v431.029h315.203v-20.104" fill="none" stroke="#50514f" stroke-width="15.57"/>
  <path d="M633.861 291.674V96.873c0-17.986-14.603-32.589-32.59-32.589-17.986 0-32.589 14.603-32.589 32.589v266.464h65.179v-29.996" fill="#60b7db" stroke="#50514f" stroke-width="15.57"/>
  <path d="M568.682 127.268h102.381v126.837" fill="none" stroke="#50514f" stroke-width="15.57"/>
  <path d="M601.271 430.696l-32.589-67.359h65.179l-32.59 67.359z" fill="#fff" stroke="#50514f" stroke-width="15.57"/>
  <ellipse cx="633.861" cy="312.673" rx="7.784" ry="7.975" fill="#50514f"/>
  <path d="M283.371 28.766l-10.401 46.74h171.293l-11.646-46.74h-53.821c0-11.137-9.042-20.179-20.18-20.179-11.137 0-20.179 9.042-20.179 20.179h-55.066z" fill="#60b7db" stroke="#50514f" stroke-width="15.57"/>
  <ellipse cx="516.27" cy="445.936" rx="7.784" ry="7.975" fill="#50514f"/>
</svg>
