<svg viewBox="0 0 48 46" xmlns="http://www.w3.org/2000/svg" fill-rule="evenodd" clip-rule="evenodd" stroke-linejoin="round" stroke-miterlimit="2">
  <path d="M45.69 38.256l-9.666-9.408c1.997-2.93 3.166-6.438 3.166-10.209C39.19 8.421 30.649.108 20.151.108c-10.499 0-19.04 8.313-19.04 18.531 0 10.218 8.541 18.532 19.04 18.532 3.874 0 7.478-1.138 10.489-3.082l9.666 9.408c1.485 1.447 3.899 1.447 5.384 0 1.487-1.447 1.487-3.793 0-5.241zM6.823 18.639c0-7.153 5.978-12.972 13.328-12.972 7.349 0 13.327 5.819 13.327 12.972S27.5 31.611 20.151 31.611c-7.35 0-13.328-5.819-13.328-12.972z" fill-rule="nonzero"/>
</svg>
