<svg height="512" width="512" xmlns="http://www.w3.org/2000/svg">
  <path d="M86.942864 94.18544c-8.0206 0-14.4482 6.5376-14.4482 14.5581v62.1198c0 8.0206 6.4276 14.4482 14.4482 14.4482H421.55526c8.0204 0 14.5215-6.4276 14.5215-14.4482v-62.1198c0-8.0205-6.5011-14.5581-14.5215-14.5581zm0 115.6587c-8.0206 0-14.4482 6.501-14.4482 14.5215v62.1564c0 8.0206 6.4276 14.4482 14.4482 14.4482H421.55526c8.0204 0 14.5215-6.4276 14.5215-14.4482v-62.1564c0-8.0205-6.5011-14.5215-14.5215-14.5215zm0 114.5219c-8.0206 0-14.4482 6.5378-14.4482 14.5582v62.11978c0 8.0205 6.4276 14.4848 14.4482 14.4848H421.55526c8.0204 0 14.5215-6.4643 14.5215-14.4848v-62.11978c0-8.0204-6.5011-14.5582-14.5215-14.5582z"/>
</svg>
