<svg id="visual" viewBox="0 0 600 900" width="600" height="900" xmlns="http://www.w3.org/2000/svg" xmlns:xlink="http://www.w3.org/1999/xlink" version="1.1"><g><g transform="translate(205 803)"><path d="M109.3 -33.9C124.4 11 107.6 68 69.9 95.1C32.2 122.3 -26.4 119.6 -67.4 90.4C-108.3 61.2 -131.6 5.4 -117.5 -38.2C-103.3 -81.9 -51.7 -113.4 -2.3 -112.7C47.1 -111.9 94.2 -78.9 109.3 -33.9Z" fill="#0496FF"></path></g><g transform="translate(251 66)"><path d="M90.6 -27.1C102.4 6.7 86.4 51.9 55.4 73.9C24.4 95.8 -21.6 94.5 -54.9 71.3C-88.2 48.2 -108.7 3.1 -97.4 -30.1C-86.1 -63.3 -43.1 -84.7 -1.8 -84.1C39.4 -83.5 78.8 -61 90.6 -27.1Z" fill="#0496FF"></path></g><g transform="translate(526 574)"><path d="M58.1 -17.2C67.4 9.7 61.6 43.3 40.9 58.9C20.3 74.5 -15.2 72.1 -38.6 54.8C-61.9 37.4 -73.2 5 -64.7 -20.8C-56.3 -46.6 -28.1 -65.8 -1.9 -65.2C24.4 -64.6 48.8 -44.2 58.1 -17.2Z" fill="#0496FF"></path></g></g></svg>