<svg id="visual" viewBox="0 0 600 900" width="600" height="900" xmlns="http://www.w3.org/2000/svg" xmlns:xlink="http://www.w3.org/1999/xlink" version="1.1"><path d="M0 620L14.3 634.8C28.7 649.7 57.3 679.3 85.8 691C114.3 702.7 142.7 696.3 171.2 690.7C199.7 685 228.3 680 257 684.3C285.7 688.7 314.3 702.3 343 704.2C371.7 706 400.3 696 428.8 699C457.3 702 485.7 718 514.2 716.5C542.7 715 571.3 696 585.7 686.5L600 677L600 901L585.7 901C571.3 901 542.7 901 514.2 901C485.7 901 457.3 901 428.8 901C400.3 901 371.7 901 343 901C314.3 901 285.7 901 257 901C228.3 901 199.7 901 171.2 901C142.7 901 114.3 901 85.8 901C57.3 901 28.7 901 14.3 901L0 901Z" fill="#0496ff"></path><path d="M0 755L14.3 760C28.7 765 57.3 775 85.8 779.7C114.3 784.3 142.7 783.7 171.2 779.7C199.7 775.7 228.3 768.3 257 757C285.7 745.7 314.3 730.3 343 721.2C371.7 712 400.3 709 428.8 708.2C457.3 707.3 485.7 708.7 514.2 722.5C542.7 736.3 571.3 762.7 585.7 775.8L600 789L600 901L585.7 901C571.3 901 542.7 901 514.2 901C485.7 901 457.3 901 428.8 901C400.3 901 371.7 901 343 901C314.3 901 285.7 901 257 901C228.3 901 199.7 901 171.2 901C142.7 901 114.3 901 85.8 901C57.3 901 28.7 901 14.3 901L0 901Z" fill="#0e67af"></path><path d="M0 824L14.3 825C28.7 826 57.3 828 85.8 818.7C114.3 809.3 142.7 788.7 171.2 784.3C199.7 780 228.3 792 257 793C285.7 794 314.3 784 343 787.5C371.7 791 400.3 808 428.8 817.2C457.3 826.3 485.7 827.7 514.2 821.3C542.7 815 571.3 801 585.7 794L600 787L600 901L585.7 901C571.3 901 542.7 901 514.2 901C485.7 901 457.3 901 428.8 901C400.3 901 371.7 901 343 901C314.3 901 285.7 901 257 901C228.3 901 199.7 901 171.2 901C142.7 901 114.3 901 85.8 901C57.3 901 28.7 901 14.3 901L0 901Z" fill="#0d3b66"></path></svg>