<svg id="visual" viewBox="0 0 600 900" width="600" height="900" xmlns="http://www.w3.org/2000/svg" xmlns:xlink="http://www.w3.org/1999/xlink" version="1.1"><g><g transform="translate(157 590)"><path d="M126.7 -37.9C143.7 11.2 122.8 75.8 80.6 105.1C38.3 134.5 -25.4 128.6 -64.3 98.1C-103.1 67.6 -117 12.5 -102.2 -33.6C-87.3 -79.7 -43.7 -116.9 5.6 -118.7C54.8 -120.5 109.7 -87 126.7 -37.9Z" fill="#0496FF"></path></g><g transform="translate(454 894)"><path d="M67.7 -22.2C76 3.5 62.9 36 39.3 52.8C15.7 69.6 -18.3 70.8 -43 54.1C-67.6 37.4 -82.9 2.8 -74.2 -23.6C-65.4 -49.9 -32.7 -67.9 -1.5 -67.4C29.7 -66.9 59.4 -47.9 67.7 -22.2Z" fill="#0496FF"></path></g><g transform="translate(529 82)"><path d="M107.3 -37.9C119.7 3.4 97.1 53 59.4 79.9C21.8 106.8 -31 111 -64.5 87.1C-98 63.1 -112.3 11 -98.3 -32.3C-84.3 -75.7 -42.2 -110.3 2.6 -111.2C47.4 -112 94.9 -79.1 107.3 -37.9Z" fill="#0496FF"></path></g></g></svg>