<svg id="visual" viewBox="0 0 600 900" width="600" height="900" xmlns="http://www.w3.org/2000/svg" xmlns:xlink="http://www.w3.org/1999/xlink" version="1.1"><path d="M0 654L14.3 661.3C28.7 668.7 57.3 683.3 85.8 684C114.3 684.7 142.7 671.3 171.2 675.2C199.7 679 228.3 700 257 702.7C285.7 705.3 314.3 689.7 343 684.7C371.7 679.7 400.3 685.3 428.8 691.7C457.3 698 485.7 705 514.2 695.8C542.7 686.7 571.3 661.3 585.7 648.7L600 636L600 901L585.7 901C571.3 901 542.7 901 514.2 901C485.7 901 457.3 901 428.8 901C400.3 901 371.7 901 343 901C314.3 901 285.7 901 257 901C228.3 901 199.7 901 171.2 901C142.7 901 114.3 901 85.8 901C57.3 901 28.7 901 14.3 901L0 901Z" fill="#0496ff"></path><path d="M0 721L14.3 723.7C28.7 726.3 57.3 731.7 85.8 727.5C114.3 723.3 142.7 709.7 171.2 701.7C199.7 693.7 228.3 691.3 257 697.7C285.7 704 314.3 719 343 736.5C371.7 754 400.3 774 428.8 773.3C457.3 772.7 485.7 751.3 514.2 743.8C542.7 736.3 571.3 742.7 585.7 745.8L600 749L600 901L585.7 901C571.3 901 542.7 901 514.2 901C485.7 901 457.3 901 428.8 901C400.3 901 371.7 901 343 901C314.3 901 285.7 901 257 901C228.3 901 199.7 901 171.2 901C142.7 901 114.3 901 85.8 901C57.3 901 28.7 901 14.3 901L0 901Z" fill="#0e67af"></path><path d="M0 842L14.3 836C28.7 830 57.3 818 85.8 819.7C114.3 821.3 142.7 836.7 171.2 836.3C199.7 836 228.3 820 257 816C285.7 812 314.3 820 343 827C371.7 834 400.3 840 428.8 842C457.3 844 485.7 842 514.2 828.8C542.7 815.7 571.3 791.3 585.7 779.2L600 767L600 901L585.7 901C571.3 901 542.7 901 514.2 901C485.7 901 457.3 901 428.8 901C400.3 901 371.7 901 343 901C314.3 901 285.7 901 257 901C228.3 901 199.7 901 171.2 901C142.7 901 114.3 901 85.8 901C57.3 901 28.7 901 14.3 901L0 901Z" fill="#0d3b66"></path></svg>