<svg id="visual" viewBox="0 0 600 900" width="600" height="900" xmlns="http://www.w3.org/2000/svg" xmlns:xlink="http://www.w3.org/1999/xlink" version="1.1"><path d="M0 709L86 709L86 718L171 718L171 686L257 686L257 701L343 701L343 700L429 700L429 670L514 670L514 688L600 688L600 672L600 901L600 901L514 901L514 901L429 901L429 901L343 901L343 901L257 901L257 901L171 901L171 901L86 901L86 901L0 901Z" fill="#0496ff"></path><path d="M0 755L86 755L86 769L171 769L171 786L257 786L257 741L343 741L343 771L429 771L429 781L514 781L514 749L600 749L600 770L600 901L600 901L514 901L514 901L429 901L429 901L343 901L343 901L257 901L257 901L171 901L171 901L86 901L86 901L0 901Z" fill="#0e67af"></path><path d="M0 823L86 823L86 838L171 838L171 831L257 831L257 827L343 827L343 805L429 805L429 812L514 812L514 848L600 848L600 816L600 901L600 901L514 901L514 901L429 901L429 901L343 901L343 901L257 901L257 901L171 901L171 901L86 901L86 901L0 901Z" fill="#0d3b66"></path></svg>