<svg id="visual" viewBox="0 0 600 900" width="600" height="900" xmlns="http://www.w3.org/2000/svg" xmlns:xlink="http://www.w3.org/1999/xlink" version="1.1"><path d="M0 765L86 752L171 736L257 705L343 734L429 767L514 694L600 712L600 901L514 901L429 901L343 901L257 901L171 901L86 901L0 901Z" fill="#0496ff"></path><path d="M0 754L86 803L171 810L257 815L343 760L429 779L514 779L600 764L600 901L514 901L429 901L343 901L257 901L171 901L86 901L0 901Z" fill="#0e67af"></path><path d="M0 842L86 856L171 845L257 831L343 851L429 799L514 850L600 840L600 901L514 901L429 901L343 901L257 901L171 901L86 901L0 901Z" fill="#0d3b66"></path></svg>