<svg id="visual" viewBox="0 0 600 900" width="600" height="900" xmlns="http://www.w3.org/2000/svg" xmlns:xlink="http://www.w3.org/1999/xlink" version="1.1"><path d="M0 707L86 707L86 681L171 681L171 715L257 715L257 678L343 678L343 682L429 682L429 694L514 694L514 691L600 691L600 708L600 901L600 901L514 901L514 901L429 901L429 901L343 901L343 901L257 901L257 901L171 901L171 901L86 901L86 901L0 901Z" fill="#0496ff"></path><path d="M0 741L86 741L86 761L171 761L171 782L257 782L257 766L343 766L343 789L429 789L429 790L514 790L514 738L600 738L600 774L600 901L600 901L514 901L514 901L429 901L429 901L343 901L343 901L257 901L257 901L171 901L171 901L86 901L86 901L0 901Z" fill="#0e67af"></path><path d="M0 806L86 806L86 813L171 813L171 807L257 807L257 837L343 837L343 846L429 846L429 829L514 829L514 810L600 810L600 810L600 901L600 901L514 901L514 901L429 901L429 901L343 901L343 901L257 901L257 901L171 901L171 901L86 901L86 901L0 901Z" fill="#0d3b66"></path></svg>